<svg width="83" height="90" viewBox="0 0 83 90" fill="none" xmlns="http://www.w3.org/2000/svg">
<g clip-path="url(#clip0_60_977)">
<path d="M29.369 55.6401C29.369 53.204 29.3943 50.7838 29.3437 48.3667C29.3373 47.9924 28.9922 47.6181 28.7864 47.2533C27.5675 45.0931 26.2883 42.9647 25.1359 40.7728C24.0467 38.7078 23.2774 36.5667 21.4853 34.8126C19.4432 32.8142 19.1297 29.8071 18.5978 27.057C17.8759 23.3108 17.3219 19.5393 17.9836 15.7265C18.7403 11.3554 20.4595 9.86458 24.7528 9.63303C25.6425 7.74884 26.3643 5.80756 27.4186 4.06611C30.1732 -0.485749 34.305 -1.25972 38.5159 1.9472C39.4309 2.64187 40.1338 2.72117 41.2008 2.36273C48.0301 0.0725289 53.7988 2.31515 57.3955 8.51647C57.6836 9.01448 58.1871 9.53469 58.7095 9.72819C64.8264 11.993 65.9884 18.1563 64.9847 23.2252C64.8897 23.7137 64.3642 24.1736 63.9431 24.5289C61.4387 26.6414 60.1057 29.3408 59.5992 32.5573C59.3142 34.359 58.9343 36.1861 58.2884 37.8831C57.3924 40.2463 56.3855 42.6063 55.0906 44.7633C53.9191 46.7172 53.4062 48.6617 53.5708 50.898C53.6848 52.4618 53.593 54.0446 53.593 55.6655C59.0546 56.4363 64.0127 58.1365 68.401 61.2388C77.5732 67.7192 82.4902 76.5819 82.9905 87.8489C83.0728 89.6729 82.734 89.9901 80.923 89.9901C54.7075 89.9932 28.4888 89.9964 2.27327 89.9932C0.212122 89.9932 -0.0126731 89.7553 -8.54558e-06 87.7189C0.088643 72.7025 11.7938 58.9454 26.8931 56.1033C27.6656 55.9637 28.4381 55.8178 29.369 55.6401ZM80.4608 87.408C80.4069 86.523 80.4006 85.7427 80.3088 84.9719C79.856 81.2606 78.7764 77.7333 76.9812 74.4598C72.1338 65.6193 64.7378 60.2777 54.8531 58.3617C53.5518 58.108 52.7318 58.3903 52.0131 59.6052C50.5852 62.0096 48.9673 64.2998 47.4317 66.6407C45.8962 68.9817 43.778 71.145 42.9991 73.7175C42.2203 76.2869 42.7807 79.2654 42.7522 82.0631C42.7522 82.1171 42.749 82.1678 42.7522 82.2217C42.7744 83.1575 42.5306 84.1059 41.4478 83.9124C40.9697 83.8268 40.3554 82.834 40.3206 82.2249C40.1845 79.9601 40.3523 77.6762 40.2256 75.4114C40.1718 74.4186 39.8869 73.321 39.3644 72.49C36.6321 68.157 33.7382 63.9287 31.0122 59.5893C30.2682 58.4062 29.4956 58.1302 28.1785 58.3491C15.3145 60.4902 4.90749 70.942 2.87167 83.8522C2.68803 85.0163 2.60888 86.1995 2.4759 87.4461C7.22193 87.4461 11.6893 87.4461 16.372 87.4461C16.372 86.7609 16.372 86.1424 16.372 85.5238C16.372 81.6127 16.3562 77.7016 16.3847 73.7905C16.3942 72.4836 17.268 71.7033 18.0532 72.287C18.4902 72.6105 18.7656 73.4225 18.7751 74.0189C18.8384 77.93 18.8036 81.8411 18.8131 85.7522C18.8131 86.3073 18.8669 86.8624 18.8954 87.427C33.8997 87.427 48.7045 87.427 63.6961 87.427C63.6961 86.726 63.6961 86.1075 63.6961 85.4889C63.6961 81.5778 63.6993 77.6667 63.6961 73.7556C63.6961 72.8611 64.0032 72.0142 64.9816 72.195C65.4565 72.2838 65.8079 73.1624 66.1657 73.7144C66.2607 73.8634 66.1784 74.1267 66.1784 74.3393C66.1784 78.1457 66.1784 81.9521 66.1847 85.7554C66.1847 86.3105 66.2354 86.8656 66.2607 87.4112C71.0795 87.408 75.7021 87.408 80.4608 87.408ZM53.4379 20.2752C51.3577 18.9176 49.458 17.6646 47.5394 16.4339C47.1943 16.2118 46.7953 15.9771 46.4059 15.9454C44.3099 15.7646 42.2076 15.5203 40.1116 15.5489C38.5064 15.5711 36.9867 16.1547 36.0305 17.6139C34.7767 19.5298 34.6786 19.5488 32.9562 17.8898C31.5979 16.5798 30.3441 16.4751 28.8687 17.6392C27.0197 19.0984 26.5828 21.1538 26.8139 23.3394C26.9722 24.8524 27.4851 26.3274 27.7131 27.8373C28.1342 30.6065 28.188 33.3217 26.1744 35.6405C25.9686 35.8784 25.9242 36.4462 26.054 36.757C27.8841 41.1059 29.9864 45.3088 33.1493 48.8679C38.6711 55.0819 44.3732 54.9899 49.6575 48.5951C52.7603 44.8426 54.7296 40.4652 56.4489 35.9545C56.8193 34.9775 56.7813 34.2385 56.2272 33.3154C53.7387 29.1505 51.8611 24.827 53.4379 20.2752ZM57.4715 30.4257C58.3992 27.1775 59.9538 24.6716 62.3062 22.6859C62.4898 22.5305 62.6196 22.264 62.6893 22.0261C63.9019 17.8993 61.4545 13.2935 57.4462 11.9105C56.7021 11.6536 55.9074 10.9907 55.537 10.2992C52.5387 4.68466 47.9478 2.66725 41.9132 4.77982C39.9502 5.46815 38.6901 5.43326 37.0468 3.99633C34.1847 1.49043 31.4681 2.02015 29.5494 5.30003C28.5236 7.05417 27.8556 9.03668 27.1907 10.9748C26.7664 12.2119 26.2218 12.6845 24.8826 12.3356C23.0304 11.8503 21.8748 12.3197 21.1466 13.8074C20.7381 14.6448 20.4057 15.5901 20.3265 16.51C19.8674 21.747 20.6811 26.8318 22.4605 31.7579C22.7613 32.5922 23.4103 33.2964 23.9011 34.0608C24.0721 34.0418 24.2462 34.0259 24.4172 34.0069C24.7211 33.271 25.2688 32.5382 25.2815 31.796C25.31 30.1275 25.1042 28.4527 24.9396 26.7874C24.7718 25.0649 24.3602 23.3457 24.3697 21.6265C24.395 17.2586 28.9605 12.0533 34.3588 15.5552C36.4579 13.5219 39.0573 12.8336 41.8973 12.9763C43.5247 13.0588 45.1711 13.1825 46.751 13.5473C47.761 13.782 48.7995 14.3276 49.5879 15.0096C51.592 16.7384 53.6658 17.7661 56.3792 16.8208C56.8225 16.6654 57.4715 17.0968 58.0256 17.2586C57.8451 17.8391 57.747 18.4671 57.4652 18.9937C56.8605 20.1261 55.8188 21.1348 55.5687 22.3275C54.9766 25.122 55.9898 27.6882 57.4715 30.4257ZM50.9873 50.9106C44.7215 57.499 38.4336 57.5085 32.0285 51.4277C31.6074 54.4316 31.7277 56.9756 33.6496 59.2785C35.0617 60.9692 36.1128 62.9612 37.3318 64.8137C38.6806 66.8628 40.0388 68.9056 41.5047 71.1197C44.1801 67.0594 46.5357 63.1039 49.2871 59.4466C51.2342 56.8645 51.3261 54.1683 50.9873 50.9106Z" fill="#A5A5A5"/>
<path d="M80.4609 87.4084C75.7022 87.4084 71.0797 87.4084 66.2609 87.4084C66.2355 86.8629 66.1849 86.3077 66.1849 85.7526C66.1754 81.9462 66.1785 78.1398 66.1785 74.3365C66.1785 74.124 66.2609 73.8607 66.1659 73.7116C65.8081 73.1597 65.4567 72.281 64.9817 72.1922C64.0034 72.0114 63.6963 72.8552 63.6963 73.7529C63.6995 77.664 63.6963 81.5751 63.6963 85.4862C63.6963 86.1047 63.6963 86.7233 63.6963 87.4243C48.7047 87.4243 33.8967 87.4243 18.8956 87.4243C18.8671 86.8597 18.8133 86.3046 18.8133 85.7495C18.807 81.8384 18.8386 77.9272 18.7753 74.0161C18.7658 73.4198 18.4903 72.6109 18.0534 72.2842C17.2682 71.7006 16.3944 72.4809 16.3849 73.7877C16.3564 77.6989 16.3722 81.61 16.3722 85.5211C16.3722 86.1396 16.3722 86.7582 16.3722 87.4433C11.6863 87.4433 7.2221 87.4433 2.47607 87.4433C2.61222 86.1967 2.6882 85.0167 2.87184 83.8494C4.90449 70.9393 15.3147 60.4906 28.1787 58.3463C29.4958 58.1274 30.2683 58.4002 31.0124 59.5866C33.7384 63.9227 36.6322 68.1542 39.3646 72.4872C39.8902 73.3183 40.172 74.4158 40.2258 75.4087C40.3524 77.6735 40.1846 79.9573 40.3208 82.2222C40.3556 82.8344 40.9698 83.8241 41.4479 83.9097C42.5307 84.1032 42.7745 83.1548 42.7524 82.219C42.7524 82.1651 42.7524 82.1143 42.7524 82.0604C42.7809 79.2627 42.2205 76.2841 42.9993 73.7148C43.7814 71.1423 45.8963 68.979 47.4319 66.638C48.9675 64.297 50.5854 62.0068 52.0133 59.6024C52.732 58.3875 53.552 58.1084 54.8533 58.359C64.7379 60.2749 72.1372 65.6166 76.9814 74.457C78.7766 77.7338 79.8562 81.261 80.309 84.9692C80.4039 85.7431 80.4103 86.5234 80.4609 87.4084Z" fill="white"/>
<path d="M53.438 20.2756C51.8613 24.8275 53.7388 29.151 56.2274 33.3127C56.7783 34.2357 56.8195 34.9748 56.449 35.9518C54.7298 40.4656 52.7605 44.8398 49.6577 48.5923C44.3734 54.984 38.6712 55.0791 33.1495 48.8651C29.9865 45.3061 27.8874 41.1032 26.0542 36.7543C25.9244 36.4434 25.9687 35.8757 26.1745 35.6378C28.185 33.319 28.1343 30.6037 27.7133 27.8346C27.4821 26.3247 26.9724 24.8497 26.8141 23.3366C26.5861 21.1511 27.023 19.0956 28.8689 17.6365C30.3411 16.4723 31.5981 16.5802 32.9564 17.8871C34.6787 19.546 34.78 19.527 36.0307 17.6111C36.9868 16.152 38.5066 15.5683 40.1118 15.5461C42.2078 15.5176 44.3101 15.7618 46.4061 15.9426C46.7955 15.9775 47.1944 16.2122 47.5395 16.4311C49.455 17.665 51.3579 18.918 53.438 20.2756Z" fill="white"/>
<path d="M57.4717 30.4261C55.99 27.6886 54.9768 25.1225 55.5689 22.3216C55.819 21.1321 56.8607 20.1234 57.4654 18.9878C57.7472 18.4612 57.8453 17.8331 58.0258 17.2527C57.4717 17.0909 56.8227 16.6627 56.3794 16.8149C53.666 17.7602 51.5922 16.7325 49.5881 15.0037C48.7997 14.3217 47.7612 13.7761 46.7512 13.5414C45.1713 13.1766 43.5249 13.0529 41.8976 12.9704C39.0575 12.8277 36.455 13.516 34.359 15.5493C28.9639 12.0537 24.3952 17.259 24.3699 21.6237C24.3604 23.343 24.772 25.0622 24.9398 26.7846C25.1044 28.4499 25.3102 30.1248 25.2817 31.7933C25.2691 32.5355 24.7213 33.2682 24.4174 34.0042C24.2464 34.0232 24.0723 34.0391 23.9013 34.0581C23.4137 33.2936 22.7615 32.5863 22.4607 31.7552C20.6813 26.8322 19.8677 21.7474 20.3267 16.5072C20.4059 15.5874 20.7383 14.6421 21.1468 13.8047C21.875 12.317 23.0306 11.8475 24.8828 12.3329C26.2221 12.6818 26.7666 12.2091 27.1909 10.972C27.8558 9.03394 28.527 7.05142 29.5497 5.29729C31.4715 2.02058 34.1849 1.49085 37.0502 3.99676C38.6934 5.43686 39.9536 5.46858 41.9166 4.78025C47.9512 2.66768 52.5421 4.68509 55.5404 10.2996C55.9108 10.9911 56.7055 11.654 57.4496 11.911C61.4579 13.2908 63.9053 17.8998 62.6927 22.0266C62.623 22.2645 62.4932 22.5309 62.3096 22.6864C59.954 24.672 58.3962 27.1779 57.4717 30.4261Z" fill="white"/>
<path d="M50.9876 50.9111C51.3263 54.1687 51.2345 56.865 49.2905 59.447C46.5391 63.1044 44.1836 67.0599 41.5082 71.1201C40.0454 68.9092 38.6872 66.8632 37.3352 64.8141C36.1163 62.9616 35.0651 60.9696 33.653 59.2789C31.7312 56.976 31.6077 54.432 32.032 51.4281C38.4339 57.5089 44.7218 57.5026 50.9876 50.9111Z" fill="white"/>
</g>
<defs>
<clipPath id="clip0_60_977">
<rect width="83" height="90" fill="white"/>
</clipPath>
</defs>
</svg>
