<svg width="274" height="1331" viewBox="0 0 274 1331" fill="none" xmlns="http://www.w3.org/2000/svg">
<path d="M272.497 315.289H137.193V1329.68H272.497V315.289Z" stroke="black" stroke-width="2" stroke-linecap="round" stroke-linejoin="round"/>
<path d="M272.496 1246.47H157.047V1265.68H272.496V1246.47Z" stroke="black" stroke-width="2" stroke-linecap="round" stroke-linejoin="round"/>
<path d="M272.496 1203.8H157.047V1223H272.496V1203.8Z" stroke="black" stroke-width="2" stroke-linecap="round" stroke-linejoin="round"/>
<path d="M272.496 1161.08H157.047V1180.29H272.496V1161.08Z" stroke="black" stroke-width="2" stroke-linecap="round" stroke-linejoin="round"/>
<path d="M272.496 1118.41H157.047V1137.61H272.496V1118.41Z" stroke="black" stroke-width="2" stroke-linecap="round" stroke-linejoin="round"/>
<path d="M272.496 1075.73H157.047V1094.94H272.496V1075.73Z" stroke="black" stroke-width="2" stroke-linecap="round" stroke-linejoin="round"/>
<path d="M272.496 1033.05H157.047V1052.26H272.496V1033.05Z" stroke="black" stroke-width="2" stroke-linecap="round" stroke-linejoin="round"/>
<path d="M272.496 990.377H157.047V1009.58H272.496V990.377Z" stroke="black" stroke-width="2" stroke-linecap="round" stroke-linejoin="round"/>
<path d="M272.496 947.7H157.047V966.907H272.496V947.7Z" stroke="black" stroke-width="2" stroke-linecap="round" stroke-linejoin="round"/>
<path d="M272.496 905.024H157.047V924.23H272.496V905.024Z" stroke="black" stroke-width="2" stroke-linecap="round" stroke-linejoin="round"/>
<path d="M272.496 862.311H157.047V881.517H272.496V862.311Z" stroke="black" stroke-width="2" stroke-linecap="round" stroke-linejoin="round"/>
<path d="M272.496 819.635H157.047V838.841H272.496V819.635Z" stroke="black" stroke-width="2" stroke-linecap="round" stroke-linejoin="round"/>
<path d="M272.496 776.958H157.047V796.164H272.496V776.958Z" stroke="black" stroke-width="2" stroke-linecap="round" stroke-linejoin="round"/>
<path d="M272.496 734.281H157.047V753.487H272.496V734.281Z" stroke="black" stroke-width="2" stroke-linecap="round" stroke-linejoin="round"/>
<path d="M272.496 691.604H157.047V710.81H272.496V691.604Z" stroke="black" stroke-width="2" stroke-linecap="round" stroke-linejoin="round"/>
<path d="M272.496 648.927H157.047V668.134H272.496V648.927Z" stroke="black" stroke-width="2" stroke-linecap="round" stroke-linejoin="round"/>
<path d="M272.496 606.25H157.047V625.457H272.496V606.25Z" stroke="black" stroke-width="2" stroke-linecap="round" stroke-linejoin="round"/>
<path d="M272.496 563.538H157.047V582.744H272.496V563.538Z" stroke="black" stroke-width="2" stroke-linecap="round" stroke-linejoin="round"/>
<path d="M272.496 520.861H157.047V540.067H272.496V520.861Z" stroke="black" stroke-width="2" stroke-linecap="round" stroke-linejoin="round"/>
<path d="M272.496 478.184H157.047V497.391H272.496V478.184Z" stroke="black" stroke-width="2" stroke-linecap="round" stroke-linejoin="round"/>
<path d="M272.496 435.508H157.047V454.714H272.496V435.508Z" stroke="black" stroke-width="2" stroke-linecap="round" stroke-linejoin="round"/>
<path d="M272.496 392.831H157.047V412.037H272.496V392.831Z" stroke="black" stroke-width="2" stroke-linecap="round" stroke-linejoin="round"/>
<path d="M272.496 350.154H157.047V369.36H272.496V350.154Z" stroke="black" stroke-width="2" stroke-linecap="round" stroke-linejoin="round"/>
<path d="M136.304 1330H1V735.284L136.304 627.177V1330Z" stroke="black" stroke-width="2" stroke-linecap="round" stroke-linejoin="round"/>
<path d="M136.303 1246.76H20.8535V1265.97H136.303V1246.76Z" stroke="black" stroke-width="2" stroke-linecap="round" stroke-linejoin="round"/>
<path d="M136.303 1204.08H20.8535V1223.29H136.303V1204.08Z" stroke="black" stroke-width="2" stroke-linecap="round" stroke-linejoin="round"/>
<path d="M136.303 1161.41H20.8535V1180.61H136.303V1161.41Z" stroke="black" stroke-width="2" stroke-linecap="round" stroke-linejoin="round"/>
<path d="M136.303 1118.73H20.8535V1137.94H136.303V1118.73Z" stroke="black" stroke-width="2" stroke-linecap="round" stroke-linejoin="round"/>
<path d="M136.303 1076.05H20.8535V1095.26H136.303V1076.05Z" stroke="black" stroke-width="2" stroke-linecap="round" stroke-linejoin="round"/>
<path d="M136.303 1033.38H20.8535V1052.58H136.303V1033.38Z" stroke="black" stroke-width="2" stroke-linecap="round" stroke-linejoin="round"/>
<path d="M136.303 990.664H20.8535V1009.87H136.303V990.664Z" stroke="black" stroke-width="2" stroke-linecap="round" stroke-linejoin="round"/>
<path d="M136.303 947.988H20.8535V967.194H136.303V947.988Z" stroke="black" stroke-width="2" stroke-linecap="round" stroke-linejoin="round"/>
<path d="M136.303 905.311H20.8535V924.517H136.303V905.311Z" stroke="black" stroke-width="2" stroke-linecap="round" stroke-linejoin="round"/>
<path d="M136.303 862.634H20.8535V881.84H136.303V862.634Z" stroke="black" stroke-width="2" stroke-linecap="round" stroke-linejoin="round"/>
<path d="M136.303 819.957H20.8535V839.163H136.303V819.957Z" stroke="black" stroke-width="2" stroke-linecap="round" stroke-linejoin="round"/>
<path d="M136.303 777.281H20.8535V796.487H136.303V777.281Z" stroke="black" stroke-width="2" stroke-linecap="round" stroke-linejoin="round"/>
<path d="M136.303 734.604H20.8535V753.81H136.303V734.604Z" stroke="black" stroke-width="2" stroke-linecap="round" stroke-linejoin="round"/>
<path d="M136.303 691.604H81.9268V710.811H136.303V691.604Z" stroke="black" stroke-width="2" stroke-linecap="round" stroke-linejoin="round"/>
<path d="M199.333 197.041L204.074 1H205.437L210.179 197.041H199.333Z" stroke="black" stroke-width="2" stroke-linecap="round" stroke-linejoin="round"/>
<path d="M258.302 304.002H151.357L175.716 256.738H233.974L258.302 304.002Z" stroke="black" stroke-width="2" stroke-linecap="round" stroke-linejoin="round"/>
<path d="M136.659 315.683L273 315.862V309.878C273 306.151 270.422 303.141 267.251 303.141L142.408 302.998C139.237 302.998 136.659 306.008 136.659 309.735V315.683Z" stroke="black" stroke-width="2" stroke-linecap="round" stroke-linejoin="round"/>
<path d="M214.355 195.608H195.331L175.685 242.835V256.738H233.972V242.835L214.355 195.608Z" stroke="black" stroke-width="2" stroke-linecap="round" stroke-linejoin="round"/>
<path d="M175.685 242.835H233.972" stroke="black" stroke-width="2" stroke-linecap="round" stroke-linejoin="round"/>
<path d="M120.273 1283.42H104.39V1329.82H120.273V1283.42Z" stroke="black" stroke-width="2" stroke-linecap="round" stroke-linejoin="round"/>
<path d="M112.332 1303.52V1310.29" stroke="black" stroke-width="2" stroke-linecap="round" stroke-linejoin="round"/>
<path d="M93.2172 1283.42H77.334V1329.82H93.2172V1283.42Z" stroke="black" stroke-width="2" stroke-linecap="round" stroke-linejoin="round"/>
<path d="M85.2764 1303.52V1310.29" stroke="black" stroke-width="2" stroke-linecap="round" stroke-linejoin="round"/>
<path d="M256.583 1283.42H240.7V1329.82H256.583V1283.42Z" stroke="black" stroke-width="2" stroke-linecap="round" stroke-linejoin="round"/>
<path d="M248.643 1303.52V1310.29" stroke="black" stroke-width="2" stroke-linecap="round" stroke-linejoin="round"/>
<path d="M229.529 1283.42H213.646V1329.82H229.529V1283.42Z" stroke="black" stroke-width="2" stroke-linecap="round" stroke-linejoin="round"/>
<path d="M221.588 1303.52V1310.29" stroke="black" stroke-width="2" stroke-linecap="round" stroke-linejoin="round"/>
</svg>
