<svg width="78" height="68" viewBox="0 0 78 68" fill="none" xmlns="http://www.w3.org/2000/svg">
<g clip-path="url(#clip0_60_989)">
<path d="M45.396 42.0394C44.7499 46.7038 44.5485 46.8785 40.1194 46.8865C39.251 46.8882 38.3842 46.8898 37.5158 46.8865C33.5362 46.8671 33.1495 46.505 32.7483 42.1526C26.4518 40.9287 20.0668 39.6709 13.6737 38.4518C11.2182 37.983 8.74347 37.6143 6.2816 37.1746C2.57752 36.5117 0.262266 34.0655 0.125316 30.2095C-0.0358007 25.6987 -0.0535236 21.1717 0.134983 16.6625C0.312212 12.3991 3.1656 9.83487 7.54154 9.8284C28.5609 9.79607 49.5802 9.79284 70.5995 9.83164C75.0415 9.83972 77.8256 12.6157 77.9271 17.0586C78.0238 21.2833 78.0206 25.5144 77.9287 29.7406C77.8353 33.9572 75.5893 36.4793 71.6484 37.1972C62.9433 38.78 54.2445 40.4033 45.396 42.0394ZM39.0093 13.3514C28.6801 13.3514 18.3493 13.3772 8.02005 13.3336C5.34712 13.3223 3.69889 14.3958 3.6425 17.1637C3.5555 21.4239 3.57806 25.689 3.6425 29.9508C3.67473 32.0898 4.90888 33.2894 6.99213 33.6791C14.9271 35.1649 22.8557 36.6766 30.7923 38.1511C31.4336 38.2707 32.5421 38.4453 32.7064 38.1656C34.6044 34.9272 37.6978 36.3241 40.3111 36.1835C41.6661 36.1091 43.5947 36.2853 44.3101 37.1471C45.4765 38.5521 46.4739 38.2837 47.8192 38.0218C55.2741 36.565 62.7354 35.1439 70.2016 33.7405C73.6688 33.089 74.4051 32.2887 74.4325 28.7673C74.4599 25.2799 74.4583 21.7909 74.4325 18.3035C74.4051 14.3926 73.3611 13.3578 69.4185 13.353C59.2827 13.3417 49.1468 13.3497 39.0093 13.3514ZM42.5233 38.793C40.0227 38.793 37.867 38.793 35.5662 38.793C35.5662 40.6603 35.5662 42.3337 35.5662 44.0879C37.9701 44.0879 40.1967 44.0879 42.5233 44.0879C42.5233 42.2545 42.5233 40.6522 42.5233 38.793Z" fill="#A5A5A5"/>
<path d="M38.9613 67.9952C29.3168 67.9952 19.6724 68.0049 10.0279 67.9919C4.47418 67.9855 2.03487 65.5959 2.01231 60.1101C1.98654 53.6253 1.96076 47.1404 2.06387 40.6571C2.07676 39.8147 2.86624 38.9837 3.29481 38.1479C3.85872 38.9708 4.89309 39.7856 4.91081 40.6199C5.04776 47.0046 4.97204 53.3941 4.99298 59.7819C5.00587 63.8061 6.14819 64.975 10.1391 64.9783C29.428 64.9928 48.7169 64.9944 68.0059 64.9766C71.8372 64.9734 73.0214 63.777 73.0392 59.9614C73.0666 53.9615 73.0456 47.9601 73.0472 41.9586C73.0472 41.2812 72.8668 40.5229 73.1117 39.9473C73.4049 39.2602 74.0639 38.7299 74.5649 38.1333C75.0467 38.7218 75.9425 39.3071 75.9473 39.9004C76.0182 47.3505 76.1149 54.8071 75.8716 62.2508C75.754 65.861 72.7298 67.9758 68.4699 67.9871C58.6353 68.0113 48.7991 67.9952 38.9613 67.9952Z" fill="#A5A5A5"/>
<path d="M39.0257 0.0307482C42.1046 0.032365 45.1868 -0.0500906 48.2609 0.0549999C51.8554 0.177875 54.7168 2.55615 54.9134 5.66036C54.965 6.4736 54.1835 7.33858 53.7856 8.1793C53.2023 7.57786 52.2743 7.06372 52.1003 6.35881C51.4993 3.94981 49.9349 3.06705 47.6793 3.05897C41.9064 3.04119 36.1336 3.0428 30.3608 3.05735C28.0955 3.06382 26.5471 3.96275 25.9413 6.36366C25.7641 7.06372 24.8329 7.57301 24.248 8.17122C23.8517 7.32888 23.0735 6.45905 23.1282 5.64743C23.3393 2.53837 26.212 0.161707 29.7904 0.046916C32.8645 -0.0484738 35.9467 0.0291315 39.0257 0.0307482Z" fill="#A5A5A5"/>
</g>
<defs>
<clipPath id="clip0_60_989">
<rect width="78" height="68" fill="white"/>
</clipPath>
</defs>
</svg>
