<svg width="49" height="49" viewBox="0 0 49 49" fill="none" xmlns="http://www.w3.org/2000/svg">
<path d="M46.5332 3.48444V45.0488C46.5332 45.8687 45.8687 46.5332 45.0488 46.5332H3.48444C2.66461 46.5332 2 45.8687 2 45.0488V3.48444C2 2.66461 2.66461 2 3.48444 2H45.0488C45.8687 2 46.5332 2.66461 46.5332 3.48444Z" stroke="#1E88D9" stroke-width="4" stroke-linecap="round" stroke-linejoin="round"/>
<path d="M2 34.1629L19.3185 26.7407L46.5332 39.111" stroke="#1E88D9" stroke-width="4" stroke-linecap="round" stroke-linejoin="round"/>
<path d="M34.163 19.3185C31.4301 19.3185 29.2148 17.1032 29.2148 14.3704C29.2148 11.6376 31.4301 9.42224 34.163 9.42224C36.8958 9.42224 39.1111 11.6376 39.1111 14.3704C39.1111 17.1032 36.8958 19.3185 34.163 19.3185Z" stroke="#1E88D9" stroke-width="4" stroke-linecap="round" stroke-linejoin="round"/>
</svg>
