<svg width="104" height="93" viewBox="0 0 104 93" fill="none" xmlns="http://www.w3.org/2000/svg">
<g clip-path="url(#clip0_37_262)">
<path d="M14.8339 11.0444V11.8007C14.8339 13.8483 14.8255 15.8959 14.8339 17.9435C14.8563 21.9543 18.1145 25.1357 22.4905 25.4314C26.6275 25.7104 30.4013 22.9448 31.0719 19.1235C31.1412 18.6369 31.1692 18.1461 31.1558 17.6556C31.1642 15.48 31.1558 13.3121 31.1558 11.0917H52.8317V11.7879C52.8317 13.8138 52.8317 15.8396 52.8317 17.8655C52.8429 21.8865 56.0005 25.0602 60.3345 25.416C64.5261 25.7577 68.2817 23.0856 69.0557 19.2002C69.1303 18.7574 69.1631 18.3096 69.1536 17.8616C69.1633 15.8358 69.1536 13.8099 69.1536 11.7841V10.9266C71.9828 11.0546 74.7674 10.9087 77.4347 11.3554C81.3035 12.0016 83.9734 15.2906 83.9762 18.9059C83.9893 38.3343 83.9893 57.7622 83.9762 77.1898C83.9762 81.4859 80.0921 84.9963 75.4004 84.9963C53.1386 85.0065 30.8805 85.0065 8.62622 84.9963C7.48791 84.9964 6.36079 84.7904 5.30979 84.3899C4.25879 83.9894 3.30467 83.4025 2.50236 82.6629C1.70005 81.9232 1.06542 81.0455 0.634995 80.0803C0.204573 79.1151 -0.0131297 78.0814 -0.00557408 77.0387C-0.0111628 57.717 -0.0111628 38.3957 -0.00557408 19.0748C-0.00557408 14.5496 3.81429 11.0636 8.76171 11.0508C10.7485 11.0405 12.7256 11.0444 14.8339 11.0444ZM5.59434 32.3907C5.58177 32.6466 5.56081 32.8783 5.56081 33.1073C5.56081 47.6112 5.56081 62.1151 5.56081 76.619C5.56081 78.7715 6.79313 79.8939 9.12922 79.8939H74.7898C77.2306 79.8939 78.4392 78.7958 78.4392 76.5665C78.4392 62.0848 78.4392 47.6035 78.4392 33.1227V32.3907H5.59434Z" fill="url(#paint0_linear_37_262)"/>
<path d="M17.6481 11.4487C17.6481 9.21045 17.5908 6.9696 17.6649 4.73643C17.7347 2.63508 18.946 1.14544 21.0558 0.385268C23.206 -0.392823 25.1788 0.0333367 26.8275 1.52041C27.3223 1.95965 27.7134 2.48732 27.9763 3.0707C28.2392 3.65408 28.3685 4.28073 28.356 4.91176C28.356 9.26292 28.3714 13.6051 28.356 17.9525C28.3421 20.7039 26.0102 22.8603 23.0859 22.8795C20.0554 22.8987 17.6914 20.7845 17.6522 17.9717C17.6201 15.7961 17.6522 13.6205 17.6522 11.4526L17.6481 11.4487Z" fill="url(#paint1_linear_37_262)"/>
<path d="M55.6506 11.4487C55.6506 9.21045 55.592 6.96959 55.6674 4.73642C55.7401 2.60563 56.9766 1.10704 59.1226 0.358385C61.2687 -0.390271 63.2513 0.0576435 64.879 1.56263C65.359 2.0002 65.7376 2.52204 65.9921 3.09688C66.2466 3.67172 66.3717 4.2877 66.36 4.90791C66.36 9.25908 66.374 13.6013 66.3531 17.9486C66.3391 20.7001 64.0072 22.8552 61.0829 22.8757C58.0538 22.8961 55.7079 20.7807 55.6422 17.9691C55.6422 17.9256 55.6422 17.8833 55.6422 17.8411V11.4487H55.6506Z" fill="url(#paint2_linear_37_262)"/>
<path d="M18.2106 35.8345C19.211 35.8345 20.2114 35.8345 21.2117 35.8345C22.5963 35.8345 23.5297 36.6829 23.5367 37.9576C23.5478 39.791 23.5478 41.6254 23.5367 43.4605C23.5283 44.73 22.5866 45.5798 21.2048 45.5824C19.2278 45.5824 17.2494 45.5926 15.2723 45.5824C13.8193 45.5824 12.8971 44.7748 12.872 43.449C12.8422 41.6164 12.8422 39.7821 12.872 37.9461C12.8943 36.6202 13.8248 35.8332 15.2793 35.8319C16.2559 35.8332 17.2326 35.8345 18.2106 35.8345Z" fill="url(#paint3_linear_37_262)"/>
<path d="M65.8007 45.5888C64.8227 45.5888 63.8446 45.5888 62.8666 45.5888C61.401 45.5773 60.4635 44.7211 60.4593 43.3927C60.4537 41.6011 60.4537 39.8094 60.4593 38.0178C60.4663 36.6625 61.3717 35.8422 62.8597 35.8319C64.8157 35.826 66.7718 35.826 68.7278 35.8319C70.2284 35.8383 71.1156 36.6267 71.1352 38.0075C71.1603 39.7992 71.1603 41.5908 71.1352 43.3825C71.1142 44.7825 70.2019 45.5734 68.6622 45.5862C67.7093 45.5952 66.755 45.5888 65.8007 45.5888Z" fill="url(#paint4_linear_37_262)"/>
<path d="M18.1589 60.9893C17.2046 60.9893 16.2503 60.9893 15.2961 60.9893C13.7871 60.9766 12.8859 60.1921 12.8678 58.8266C12.8436 57.0349 12.8436 55.2433 12.8678 53.4516C12.8859 52.0439 13.7969 51.2363 15.3212 51.2299C17.2521 51.2223 19.1835 51.2223 21.1154 51.2299C22.6215 51.2299 23.5366 52.081 23.5394 53.4721C23.5394 55.2424 23.5394 57.0114 23.5394 58.7792C23.5394 60.1358 22.6285 60.9765 21.1642 60.9881C20.1597 60.9957 19.1593 60.9893 18.1589 60.9893Z" fill="url(#paint5_linear_37_262)"/>
<path d="M65.8409 51.2274C66.819 51.2274 67.797 51.2197 68.775 51.2274C70.1429 51.2414 71.0902 52.0298 71.1209 53.275C71.1656 55.1519 71.1689 57.0289 71.1307 58.9059C71.1056 60.1856 70.1764 60.9791 68.7555 60.988C66.7994 61.0017 64.8434 61.0017 62.8873 60.988C61.3504 60.9791 60.4618 60.1536 60.459 58.7587C60.459 56.9901 60.459 55.221 60.459 53.4516C60.459 52.0771 61.3895 51.2363 62.9069 51.2261C63.8863 51.2222 64.8643 51.2274 65.8409 51.2274Z" fill="url(#paint6_linear_37_262)"/>
<path d="M65.7642 76.4219C64.7862 76.4219 63.8082 76.4283 62.8302 76.4219C61.4008 76.4091 60.4633 75.5606 60.455 74.263C60.4447 72.4508 60.4447 70.6391 60.455 68.8278C60.4619 67.5071 61.3631 66.6766 62.8134 66.6663C64.8141 66.6535 66.8168 66.6535 68.8213 66.6663C70.1458 66.6766 71.0652 67.406 71.1043 68.6167C71.1686 70.579 71.1686 72.5413 71.1043 74.5036C71.0666 75.64 70.0843 76.4091 68.8408 76.4232C67.8181 76.4321 66.794 76.4219 65.7642 76.4219Z" fill="url(#paint7_linear_37_262)"/>
<path d="M18.2482 66.6535C19.2024 66.6535 20.1567 66.6446 21.111 66.6535C22.6479 66.6727 23.5337 67.4828 23.5393 68.8854C23.5458 70.6549 23.5458 72.4244 23.5393 74.1938C23.5393 75.5721 22.6088 76.4142 21.0942 76.4193C19.1619 76.4193 17.2296 76.427 15.2987 76.4193C13.8177 76.4129 12.8886 75.6028 12.8649 74.2437C12.8341 72.4521 12.8341 70.6604 12.8649 68.8688C12.8886 67.4367 13.7381 66.6855 15.3169 66.6535C16.2921 66.6369 17.2701 66.6535 18.2482 66.6535Z" fill="url(#paint8_linear_37_262)"/>
<path d="M55.2645 71.5639C55.2645 72.4815 55.2757 73.3978 55.2645 74.3141C55.2463 75.5465 54.32 76.4065 52.9745 76.4155C50.9253 76.4309 48.8761 76.4309 46.8269 76.4155C45.6211 76.4053 44.6585 75.6131 44.6319 74.5099C44.5816 72.5084 44.5886 70.503 44.6403 68.5015C44.6535 68.0132 44.8747 67.549 45.2567 67.2082C45.6387 66.8674 46.1511 66.677 46.6844 66.6778C48.8267 66.6429 50.9691 66.6429 53.1114 66.6778C54.387 66.6996 55.2435 67.5673 55.2603 68.7574C55.2728 69.6955 55.2603 70.6336 55.2603 71.5729L55.2645 71.5639Z" fill="url(#paint9_linear_37_262)"/>
<path d="M49.8993 60.9829C48.8989 60.9829 47.8985 60.9906 46.8982 60.9829C45.568 60.9701 44.6334 60.1728 44.6152 58.9609C44.5845 57.0652 44.5868 55.1686 44.6222 53.2711C44.6459 52.0579 45.5807 51.244 46.8996 51.235C48.9227 51.2214 50.9468 51.2214 52.9717 51.235C54.3186 51.2465 55.2519 52.1117 55.2603 53.3377C55.2715 55.1908 55.2715 57.0447 55.2603 58.8995C55.2505 60.1421 54.341 60.965 52.9703 60.9842C51.9476 60.9983 50.9234 60.9842 49.8965 60.9842L49.8993 60.9829Z" fill="url(#paint10_linear_37_262)"/>
<path d="M28.74 71.5166C28.74 70.5785 28.7274 69.6404 28.74 68.7011C28.7581 67.5608 29.63 66.6932 30.8735 66.6727C33.0139 66.6356 35.1558 66.6381 37.3005 66.6727C37.8332 66.6697 38.3462 66.8571 38.7304 67.195C39.1147 67.5329 39.34 67.9947 39.3586 68.4823C39.4158 70.4838 39.427 72.4892 39.3725 74.4907C39.3418 75.6361 38.3833 76.4103 37.1231 76.4103C35.099 76.4274 33.0745 76.4274 31.0495 76.4103C29.6649 76.4001 28.7553 75.5401 28.7428 74.2604C28.733 73.3441 28.7428 72.4265 28.7428 71.5102L28.74 71.5166Z" fill="url(#paint11_linear_37_262)"/>
<path d="M34.092 35.8357C35.1161 35.8357 36.1403 35.8242 37.1658 35.8357C38.4233 35.8524 39.358 36.6305 39.3818 37.7823C39.4218 39.6993 39.4218 41.619 39.3818 43.5411C39.3524 44.8055 38.4191 45.5811 37.0373 45.5888C35.0812 45.5973 33.1289 45.5973 31.1803 45.5888C29.663 45.5888 28.745 44.7377 28.7422 43.3645C28.7422 41.5729 28.7422 39.7812 28.7422 37.9896C28.7422 36.6676 29.6364 35.8498 31.0923 35.8357C32.0913 35.8281 33.0916 35.8357 34.092 35.8357Z" fill="url(#paint12_linear_37_262)"/>
<path d="M49.8931 45.581C48.8927 45.581 47.8937 45.5887 46.8933 45.581C45.6358 45.5708 44.6578 44.803 44.6285 43.6717C44.5768 41.6701 44.5851 39.6647 44.6382 37.6632C44.6662 36.6253 45.6162 35.8549 46.7633 35.846C48.8572 35.8263 50.953 35.8263 53.0506 35.846C53.3412 35.8406 53.63 35.8889 53.8997 35.9881C54.1693 36.0873 54.4144 36.2353 54.6202 36.4232C54.826 36.6111 54.9884 36.8351 55.0975 37.0818C55.2066 37.3285 55.2604 37.5929 55.2554 37.859C55.2722 39.736 55.2722 41.613 55.2554 43.4899C55.2429 44.7338 54.3151 45.5593 52.9598 45.5721C51.9385 45.581 50.9158 45.5721 49.8931 45.5721V45.581Z" fill="url(#paint13_linear_37_262)"/>
<path d="M39.3878 56.1198C39.3878 57.0579 39.4073 57.996 39.3878 58.9353C39.357 60.16 38.4712 60.9714 37.1369 60.9829C35.1128 61.0008 33.0883 61.0008 31.0633 60.9829C29.6662 60.9727 28.7496 60.1229 28.744 58.8572C28.7338 57.0238 28.7338 55.1895 28.744 53.3543C28.751 52.1155 29.6647 51.2414 31.0032 51.2286C33.0524 51.2098 35.1016 51.2098 37.1508 51.2286C38.4251 51.2376 39.3556 52.0758 39.3863 53.2378C39.4073 54.2015 39.3864 55.1613 39.3878 56.1198Z" fill="url(#paint14_linear_37_262)"/>
</g>
<circle cx="85.5" cy="74.5" r="18.5" fill="#F74B4B"/>
<defs>
<linearGradient id="paint0_linear_37_262" x1="41.9881" y1="10.9266" x2="41.9881" y2="85.0039" gradientUnits="userSpaceOnUse">
<stop stop-color="#0161B0"/>
<stop offset="1" stop-color="#0798F5"/>
</linearGradient>
<linearGradient id="paint1_linear_37_262" x1="22.9949" y1="0.00323486" x2="22.9949" y2="22.8796" gradientUnits="userSpaceOnUse">
<stop stop-color="#0161B0"/>
<stop offset="1" stop-color="#0798F5"/>
</linearGradient>
<linearGradient id="paint2_linear_37_262" x1="60.9968" y1="0.00268555" x2="60.9968" y2="22.8758" gradientUnits="userSpaceOnUse">
<stop stop-color="#0161B0"/>
<stop offset="1" stop-color="#0798F5"/>
</linearGradient>
<linearGradient id="paint3_linear_37_262" x1="18.1973" y1="35.8319" x2="18.1973" y2="45.5869" gradientUnits="userSpaceOnUse">
<stop stop-color="#0161B0"/>
<stop offset="1" stop-color="#0798F5"/>
</linearGradient>
<linearGradient id="paint4_linear_37_262" x1="65.8046" y1="35.8275" x2="65.8046" y2="45.591" gradientUnits="userSpaceOnUse">
<stop stop-color="#0161B0"/>
<stop offset="1" stop-color="#0798F5"/>
</linearGradient>
<linearGradient id="paint5_linear_37_262" x1="18.1945" y1="51.2242" x2="18.1945" y2="60.9918" gradientUnits="userSpaceOnUse">
<stop stop-color="#0161B0"/>
<stop offset="1" stop-color="#0798F5"/>
</linearGradient>
<linearGradient id="paint6_linear_37_262" x1="65.808" y1="51.2239" x2="65.808" y2="60.9983" gradientUnits="userSpaceOnUse">
<stop stop-color="#0161B0"/>
<stop offset="1" stop-color="#0798F5"/>
</linearGradient>
<linearGradient id="paint7_linear_37_262" x1="65.7999" y1="66.6567" x2="65.7999" y2="76.4269" gradientUnits="userSpaceOnUse">
<stop stop-color="#0161B0"/>
<stop offset="1" stop-color="#0798F5"/>
</linearGradient>
<linearGradient id="paint8_linear_37_262" x1="18.193" y1="66.6461" x2="18.193" y2="76.4227" gradientUnits="userSpaceOnUse">
<stop stop-color="#0161B0"/>
<stop offset="1" stop-color="#0798F5"/>
</linearGradient>
<linearGradient id="paint9_linear_37_262" x1="49.9336" y1="66.6516" x2="49.9336" y2="76.427" gradientUnits="userSpaceOnUse">
<stop stop-color="#0161B0"/>
<stop offset="1" stop-color="#0798F5"/>
</linearGradient>
<linearGradient id="paint10_linear_37_262" x1="49.9312" y1="51.2248" x2="49.9312" y2="60.9905" gradientUnits="userSpaceOnUse">
<stop stop-color="#0161B0"/>
<stop offset="1" stop-color="#0798F5"/>
</linearGradient>
<linearGradient id="paint11_linear_37_262" x1="34.0712" y1="66.6458" x2="34.0712" y2="76.4231" gradientUnits="userSpaceOnUse">
<stop stop-color="#0161B0"/>
<stop offset="1" stop-color="#0798F5"/>
</linearGradient>
<linearGradient id="paint12_linear_37_262" x1="34.077" y1="35.8306" x2="34.077" y2="45.5952" gradientUnits="userSpaceOnUse">
<stop stop-color="#0161B0"/>
<stop offset="1" stop-color="#0798F5"/>
</linearGradient>
<linearGradient id="paint13_linear_37_262" x1="49.9309" y1="35.8312" x2="49.9309" y2="45.5845" gradientUnits="userSpaceOnUse">
<stop stop-color="#0161B0"/>
<stop offset="1" stop-color="#0798F5"/>
</linearGradient>
<linearGradient id="paint14_linear_37_262" x1="34.0664" y1="51.2145" x2="34.0664" y2="60.9963" gradientUnits="userSpaceOnUse">
<stop stop-color="#0161B0"/>
<stop offset="1" stop-color="#0798F5"/>
</linearGradient>
<clipPath id="clip0_37_262">
<rect width="84" height="85" fill="white"/>
</clipPath>
</defs>
</svg>
