<svg width="148" height="120" viewBox="0 0 148 120" fill="none" xmlns="http://www.w3.org/2000/svg">
<g filter="url(#filter0_d_37_261)">
<g clip-path="url(#clip0_37_261)">
<path d="M45.5444 58.005C44.1116 59.4054 42.6926 60.7877 41.2833 62.1701C40.0872 63.3479 38.8883 64.5202 37.7213 65.7353C37.3364 66.1348 37.0042 66.2689 36.467 66.0201C35.498 65.5722 34.6383 65.8113 33.8893 66.5592C28.0998 72.3403 22.3085 78.1192 16.5153 83.8957C12.6954 87.7074 8.87627 91.5205 5.05815 95.335C3.65577 96.7339 3.64332 98.0085 5.03185 99.3909C6.92015 101.274 8.80708 103.157 10.6926 105.041C11.9538 106.303 13.2828 106.324 14.5522 105.063C17.2804 102.351 20.003 99.6328 22.7201 96.9067C29.5266 90.1118 36.3318 83.311 43.1356 76.5041C43.5509 76.0894 43.9787 75.6 44.1434 75.0664C44.2985 74.5674 44.0963 73.9605 44.0825 73.4075C44.0825 73.1311 44.0313 72.7399 44.1877 72.5781C46.7184 69.9972 49.2823 67.4481 51.8281 64.8824C52.1189 64.5893 52.3196 64.7179 52.602 64.8907C54.5761 66.1016 56.4852 67.4578 58.5673 68.4448C60.6923 69.4498 62.9641 70.1755 65.2206 70.8626C68.9432 71.9961 72.7946 72.1551 76.646 71.9118C79.2143 71.7324 81.7543 71.2659 84.2185 70.5211C87.2863 69.6271 90.2226 68.3326 92.9512 66.6712C98.105 63.5452 102.376 59.1597 105.362 53.9283C106.933 51.2078 108.16 48.3352 108.899 45.2953C109.4 43.23 109.661 41.1012 109.936 38.9889C110.124 37.6919 110.194 36.3807 110.145 35.0712C109.986 32.0673 109.591 29.0979 108.751 26.1825C107.663 22.3804 105.963 18.7802 103.718 15.5229C101.022 11.6156 97.5676 8.28835 93.5603 5.73835C90.4236 3.72732 86.9954 2.21101 83.3962 1.24283C79.5001 0.182162 75.4508 -0.204045 71.424 0.100977C68.0284 0.361173 64.6875 1.10602 61.5035 2.3128C57.7459 3.70679 54.2493 5.7208 51.1595 8.27088C46.2394 12.3406 42.6012 17.3628 40.3779 23.3389C39.4173 25.8966 38.7503 28.5549 38.3899 31.2627C38.0057 34.0684 37.955 36.9096 38.239 39.7271C38.604 43.1763 39.4633 46.5552 40.7905 49.7604C41.9921 52.6648 43.5855 55.3328 45.5444 58.005ZM103.654 35.9739C103.596 52.4367 90.6406 65.4823 74.1097 65.5252C57.7809 65.5667 44.5684 52.4257 44.5463 35.9836C44.5227 19.7958 57.7962 6.49175 74.0973 6.50696C90.4316 6.52355 103.688 19.7226 103.654 35.9739Z" fill="url(#paint0_linear_37_261)"/>
<path d="M121.981 77.3625C121.981 74.0227 121.989 70.6815 121.973 67.3416C121.973 66.8301 122.046 66.5799 122.665 66.5122C123.577 66.4103 124.42 65.9769 125.033 65.2944C125.646 64.6119 125.985 63.7281 125.987 62.8115C125.987 55.8111 125.988 48.8107 126 41.8103C126 40.233 125.388 39.0345 124.012 38.2949C123.487 38.0102 122.902 37.8503 122.305 37.8277C119.354 37.7807 116.399 37.8277 113.445 37.7917C112.761 37.7848 112.643 38.1498 112.58 38.6806C112.387 40.2759 112.236 41.8781 111.962 43.4595C111.73 44.7671 111.42 46.0596 111.033 47.3302C110.004 50.6918 108.513 53.8948 106.603 56.8479C105.106 59.1924 103.348 61.3604 101.364 63.3106C100.861 63.8041 100.835 64.1925 101.196 64.7289C101.861 65.7173 102.763 66.3726 103.944 66.497C104.59 66.5661 104.661 66.8564 104.661 67.3845C104.647 72.6375 104.643 77.8906 104.649 83.1437C104.649 84.4044 104.649 85.6638 104.649 86.9245C104.678 90.9915 107.733 94.5981 111.769 95.3944C115.695 96.1685 120.15 93.6374 121.396 89.9879C121.717 89.0465 121.79 88.0207 121.976 87.0323C121.98 86.9863 121.98 86.9401 121.976 86.8941L121.981 77.3625Z" fill="url(#paint1_linear_37_261)"/>
<path d="M83.9551 73.3674C82.8975 73.5706 81.9367 73.7821 80.9662 73.937C79.5611 74.1595 78.1531 74.4319 76.7355 74.5134C74.984 74.636 73.226 74.6333 71.4749 74.5051C69.4426 74.3296 67.427 73.9439 65.4141 73.5928C64.7122 73.4697 64.6236 73.467 64.6236 74.2287C64.6236 79.5038 64.6236 84.779 64.6236 90.0542C64.6236 91.8734 64.6112 93.694 64.6236 95.5133C64.6651 99.8553 67.7218 103.72 71.9387 104.782C74.2455 105.368 76.6876 105.085 78.7985 103.987C80.9094 102.888 82.5412 101.052 83.382 98.8282C83.8102 97.7117 84.0302 96.5264 84.0312 95.3308C84.0211 88.3267 84.0188 81.3226 84.0244 74.3185C84.0313 74.013 83.9814 73.7047 83.9551 73.3674Z" fill="url(#paint2_linear_37_261)"/>
<path d="M26.0259 70.6981C26.3028 70.4506 26.4786 70.3138 26.6322 70.1603C28.3918 68.4047 30.1638 66.6601 31.904 64.8865C33.0115 63.7571 34.2976 63.1544 35.9062 63.2028C36.3055 63.1889 36.6864 63.0319 36.9791 62.7604C38.5559 61.2398 40.0815 59.6749 41.6431 58.1432C41.9934 57.799 42.0681 57.5447 41.7677 57.0995C39.8397 54.2669 38.3513 51.1597 37.3529 47.8832C36.6745 45.6326 36.3049 43.2867 35.8467 40.9712C35.6819 40.1418 35.6474 39.2861 35.5864 38.4401C35.556 38.0157 35.3885 37.8069 34.9524 37.8083C31.7462 37.8083 28.5357 37.7129 25.3351 37.854C23.3969 37.9383 22.0292 39.452 21.8741 41.4482C21.8589 41.632 21.8659 41.8173 21.8659 42.0011C21.8659 48.796 21.8659 55.5909 21.8659 62.3858C21.8659 64.7607 23.145 66.2385 25.4901 66.5329C25.8916 66.5855 25.9816 66.7638 25.9774 67.1163C25.965 68.037 25.9774 68.959 25.9774 69.8811C25.9774 70.1036 26.001 70.3262 26.0259 70.6981Z" fill="url(#paint3_linear_37_261)"/>
<path d="M34.5279 16.6205C30.6891 16.6412 27.1478 19.3147 26.1372 22.9946C24.8913 27.5233 27.4551 32.1695 31.7024 33.5312C32.7088 33.8533 33.815 33.8754 34.8796 34.004C35.407 34.0676 35.5718 33.7731 35.5981 33.2561C35.7506 30.2718 36.2991 27.321 37.2289 24.4807C37.8546 22.5454 38.731 20.6985 39.5367 18.8295C39.7166 18.4148 39.6321 18.213 39.293 17.989C38.2436 17.2965 36.3816 16.5334 34.5279 16.6205Z" fill="url(#paint4_linear_37_261)"/>
<path d="M113.292 16.5292C111.69 16.5624 110.246 17.0421 108.878 17.8093C108.498 18.0236 108.391 18.2572 108.617 18.6982C109.836 21.0731 110.832 23.5518 111.438 26.1437C111.943 28.303 112.249 30.5162 112.528 32.7184C112.695 34.0413 112.611 34.0344 114.006 33.986C117.729 33.8588 121.091 30.9337 121.846 27.2662C122.905 22.1141 119.769 17.8923 115.321 16.8776C114.653 16.7255 113.969 16.644 113.292 16.5292Z" fill="url(#paint5_linear_37_261)"/>
<path d="M43.1927 80.2089C42.8231 80.524 42.6085 80.6844 42.4216 80.871C38.274 85.009 34.126 89.146 29.9774 93.2821C29.5621 93.6968 29.515 93.9733 30.0619 94.2719C31.9225 95.2866 33.8357 95.8091 36.0147 95.4027C38.9828 94.8497 41.1369 93.2531 42.3828 90.5795C42.92 89.4266 43.1747 88.0802 43.273 86.8001C43.4184 84.9007 43.3132 82.9833 43.3076 81.0729C43.291 80.8558 43.2412 80.6374 43.1927 80.2089Z" fill="url(#paint6_linear_37_261)"/>
<path d="M74.3409 40.4058H64.7263C63.4388 40.4058 62.2566 40.7017 61.3305 41.6569C60.4708 42.543 60.1053 43.6392 60.1025 44.8557C60.1025 49.3692 60.1025 53.8813 60.1025 58.3948C60.0869 58.5992 60.1334 58.8035 60.2359 58.9811C60.3384 59.1586 60.4921 59.3012 60.677 59.3902C62.8947 60.6517 65.2809 61.592 67.7637 62.1826C70.1075 62.7355 72.4706 63.0466 74.8725 62.9567C79.6001 62.7798 84.0219 61.5246 88.0684 59.0501C88.2083 58.9485 88.3249 58.8183 88.4104 58.6681C88.4959 58.5179 88.5483 58.3512 88.564 58.1792C88.5945 53.6173 88.6305 49.0554 88.564 44.5032C88.5336 42.4684 87.0204 40.3893 84.1008 40.4031C80.8475 40.4183 77.5942 40.4072 74.3409 40.4058Z" fill="url(#paint7_linear_37_261)"/>
<path d="M64.6022 26.3843C64.4057 31.4715 68.7996 36.1813 74.3496 36.1495C79.9522 36.1163 84.1206 31.6899 84.1483 26.3746C84.1746 21.0303 79.7612 16.5998 74.2776 16.6011C68.9505 16.6025 64.3877 21.239 64.6022 26.3843Z" fill="url(#paint8_linear_37_261)"/>
</g>
<circle cx="125.5" cy="93.5" r="18.5" fill="#F74B4B"/>
</g>
<defs>
<filter id="filter0_d_37_261" x="0" y="6.10352e-05" width="148" height="120" filterUnits="userSpaceOnUse" color-interpolation-filters="sRGB">
<feFlood flood-opacity="0" result="BackgroundImageFix"/>
<feColorMatrix in="SourceAlpha" type="matrix" values="0 0 0 0 0 0 0 0 0 0 0 0 0 0 0 0 0 0 127 0" result="hardAlpha"/>
<feOffset dy="4"/>
<feGaussianBlur stdDeviation="2"/>
<feComposite in2="hardAlpha" operator="out"/>
<feColorMatrix type="matrix" values="0 0 0 0 0 0 0 0 0 0 0 0 0 0 0 0 0 0 0.25 0"/>
<feBlend mode="normal" in2="BackgroundImageFix" result="effect1_dropShadow_37_261"/>
<feBlend mode="normal" in="SourceGraphic" in2="effect1_dropShadow_37_261" result="shape"/>
</filter>
<linearGradient id="paint0_linear_37_261" x1="216.837" y1="-6.02413" x2="4.3358" y2="5.97566" gradientUnits="userSpaceOnUse">
<stop/>
<stop offset="1" stop-opacity="0"/>
</linearGradient>
<linearGradient id="paint1_linear_37_261" x1="113.476" y1="37.7916" x2="113.476" y2="95.5341" gradientUnits="userSpaceOnUse">
<stop stop-color="#0161B0"/>
<stop offset="1" stop-color="#0798F5"/>
</linearGradient>
<linearGradient id="paint2_linear_37_261" x1="74.3247" y1="73.3674" x2="74.3247" y2="105.08" gradientUnits="userSpaceOnUse">
<stop stop-color="#0161B0"/>
<stop offset="1" stop-color="#0798F5"/>
</linearGradient>
<linearGradient id="paint3_linear_37_261" x1="31.9097" y1="37.7768" x2="31.9097" y2="70.6981" gradientUnits="userSpaceOnUse">
<stop stop-color="#0161B0"/>
<stop offset="1" stop-color="#0798F5"/>
</linearGradient>
<linearGradient id="paint4_linear_37_261" x1="32.7253" y1="16.6136" x2="32.7253" y2="34.0125" gradientUnits="userSpaceOnUse">
<stop stop-color="#0161B0"/>
<stop offset="1" stop-color="#0798F5"/>
</linearGradient>
<linearGradient id="paint5_linear_37_261" x1="115.276" y1="16.5292" x2="115.276" y2="34.0008" gradientUnits="userSpaceOnUse">
<stop stop-color="#0161B0"/>
<stop offset="1" stop-color="#0798F5"/>
</linearGradient>
<linearGradient id="paint6_linear_37_261" x1="36.5042" y1="80.2089" x2="36.5042" y2="95.541" gradientUnits="userSpaceOnUse">
<stop stop-color="#0161B0"/>
<stop offset="1" stop-color="#0798F5"/>
</linearGradient>
<linearGradient id="paint7_linear_37_261" x1="74.3506" y1="40.403" x2="74.3506" y2="62.9721" gradientUnits="userSpaceOnUse">
<stop stop-color="#0161B0"/>
<stop offset="1" stop-color="#0798F5"/>
</linearGradient>
<linearGradient id="paint8_linear_37_261" x1="74.3717" y1="16.6011" x2="74.3717" y2="36.1496" gradientUnits="userSpaceOnUse">
<stop stop-color="#0161B0"/>
<stop offset="1" stop-color="#0798F5"/>
</linearGradient>
<clipPath id="clip0_37_261">
<rect width="122" height="106" fill="white" transform="matrix(-1 0 0 1 126 6.10352e-05)"/>
</clipPath>
</defs>
</svg>
