<svg width="49" height="49" viewBox="0 0 49 49" fill="none" xmlns="http://www.w3.org/2000/svg">
<path d="M25.4509 44.2116H3.40705C2.62996 44.2116 2 43.5817 2 42.8045V3.40705C2 2.62996 2.62996 2 3.40705 2H42.8045C43.5817 2 44.2116 2.62996 44.2116 3.40705V25.4509" stroke="#1E88D9" stroke-width="4" stroke-linecap="round" stroke-linejoin="round"/>
<path d="M32.4863 39.5214H39.5216M39.5216 39.5214H46.5568M39.5216 39.5214V32.4861M39.5216 39.5214V46.5567" stroke="#1E88D9" stroke-width="4" stroke-linecap="round" stroke-linejoin="round"/>
<path d="M18.1755 14.9284C17.2374 14.3924 16.0703 15.0697 16.0703 16.1501V30.0616C16.0703 31.142 17.2374 31.8193 18.1755 31.2832L30.3479 24.3274C31.2932 23.7873 31.2932 22.4244 30.3479 21.8843L18.1755 14.9284Z" stroke="#1E88D9" stroke-width="4" stroke-linecap="round" stroke-linejoin="round"/>
</svg>
