<svg width="41" height="30" viewBox="0 0 41 30" fill="none" xmlns="http://www.w3.org/2000/svg">
<path d="M24.1385 15.3421L17.6816 19.0318V11.6525L24.1385 15.3421Z" fill="#1E88D9" stroke="#1E88D9" stroke-width="3" stroke-linecap="round" stroke-linejoin="round"/>
<path d="M2 16.6473V14.0367C2 8.69536 2 6.0247 3.67046 4.30631C5.34094 2.58792 7.97085 2.51354 13.2307 2.36478C15.7231 2.29429 18.269 2.24377 20.4481 2.24377C22.6272 2.24377 25.1733 2.29429 27.6656 2.36478C32.9253 2.51354 35.5553 2.58792 37.2258 4.30631C38.8963 6.0247 38.8963 8.69536 38.8963 14.0367V16.6473C38.8963 21.9886 38.8963 24.6594 37.2258 26.3776C35.5553 28.0961 32.9255 28.1704 27.6658 28.3193C25.1733 28.3898 22.6272 28.4403 20.4481 28.4403C18.269 28.4403 15.723 28.3898 13.2305 28.3193C7.97076 28.1704 5.3409 28.0961 3.67044 26.3776C2 24.6594 2 21.9886 2 16.6473Z" stroke="#1E88D9" stroke-width="3"/>
</svg>
