<svg width="347" height="189" viewBox="0 0 347 189" fill="none" xmlns="http://www.w3.org/2000/svg">
<rect x="1" y="1" width="345" height="187" fill="white" stroke="black" stroke-width="2" stroke-dasharray="5 5"/>
<path d="M180.662 95.3423L164.719 104.453V86.2319L180.662 95.3423Z" fill="#1E88D9" stroke="#1E88D9" stroke-width="6" stroke-linecap="round" stroke-linejoin="round"/>
<path d="M126 98.5651V92.119C126 78.9302 126 72.3358 130.125 68.0928C134.249 63.8498 140.743 63.6661 153.731 63.2988C159.885 63.1247 166.171 63 171.552 63C176.932 63 183.219 63.1247 189.373 63.2988C202.36 63.6661 208.854 63.8498 212.979 68.0928C217.104 72.3358 217.104 78.9302 217.104 92.119V98.5651C217.104 111.754 217.104 118.348 212.979 122.591C208.854 126.834 202.361 127.018 189.374 127.385C183.219 127.559 176.932 127.684 171.552 127.684C166.171 127.684 159.885 127.559 153.73 127.385C140.743 127.018 134.249 126.834 130.125 122.591C126 118.348 126 111.754 126 98.5651Z" stroke="#1E88D9" stroke-width="6"/>
</svg>
